<?xml version="1.0" encoding="UTF-8" standalone="no"?>
<!-- Created with Inkscape (http://www.inkscape.org/) -->

<svg
   width="150.54791mm"
   height="150.68021mm"
   viewBox="0 0 150.54791 150.68021"
   version="1.1"
   id="svg1"
   xml:space="preserve"
   xmlns="http://www.w3.org/2000/svg"
   xmlns:svg="http://www.w3.org/2000/svg"><defs
     id="defs1"><clipPath
   clipPathUnits="userSpaceOnUse"
   id="kl-clip">
      <path
   id="kl-clip-path"
   d="M 428.04492,1235.9902 V 1363.25 h 168.42774 c 0.5979,-5.8194 1.22617,-11.6888 1.8125,-17.4883 l 0.78515,-6.3808 c -0.81312,-0.9821 -1.7496,-1.7047 -2.77539,-2.0274 -1.05263,-0.3312 -2.19853,-0.2641 -3.44922,0.3613 h -0.002 -0.004 c -2.09582,0.9981 -5.0941,2.4972 -7.28711,3.6934 l -0.13671,0.074 -0.12696,-0.09 c -1.0449,-0.7315 -2.3417,-2.1275 -2.9707,-3.1758 l -0.12891,-0.2168 0.2168,-0.127 c 11.09227,-6.4954 22.18814,-13.7926 32.68359,-21.1894 l 0.3125,-0.2207 0.0762,0.3633 c 1.30367,6.5184 1.70507,12.3391 1.70507,18.9492 v 0.01 l -0.30078,6.6132 -0.80078,6.711 -0.80078,6.4082 -1.20313,6.3086 h 0.002 c -0.0856,0.4602 -0.16299,0.9592 -0.24805,1.4238 H 746.00773 V 1235.99 Z" />
    </clipPath>
    
    
  
    
  
      
      
    
        
        
      
        
        
        
      
          
          
          
          
          
        
          
          
          
        
            
            
            
            
            
            
            
            
            
            
          
            
            
            
            
            
            
            
            
            
            
            
            
            
          
            
            
            
          
            
            
            
            
            
            
            
            
            
          
            
            
            
            
            
            
            
            
            
            
            
            
            
          </defs><g
     id="layer1"
     transform="translate(-72.5968,-134.82515)"><path
       id="text1"
       style="font-size:21.913px;line-height:0.9;font-family:'Nimbus Roman';-inkscape-font-specification:'Nimbus Roman, Normal';text-align:center;letter-spacing:0px;word-spacing:0px;text-anchor:middle;fill:#fff500;fill-opacity:1;stroke-width:6.9973;paint-order:stroke fill markers"
       d="M 147.87076 134.82515 C 106.42826 134.82515 72.5968 168.68346 72.5968 210.15182 C 72.5968 251.62049 106.4541 285.50536 147.87076 285.50536 C 189.28743 285.50536 223.14472 251.62049 223.14472 210.15182 C 223.14472 168.68346 189.31327 134.82515 147.87076 134.82515 z M 147.87076 136.41265 C 188.44885 136.41265 221.55722 169.54664 221.55722 210.15182 C 221.55722 250.75663 188.42177 283.91786 147.87076 283.91786 C 107.31976 283.91786 74.1843 250.75663 74.1843 210.15182 C 74.1843 169.54664 107.29268 136.41265 147.87076 136.41265 z M 148.37357 139.11119 C 148.08253 139.11119 147.81753 139.37558 147.55295 140.08994 C 147.46925 141.0278 147.40929 141.95557 147.36795 142.88564 C 146.58499 142.49262 145.78617 142.12825 144.9867 141.78338 C 144.19295 141.62463 143.84878 141.73038 143.71649 141.94203 C 143.61065 142.1537 143.71691 142.52411 144.27253 143.13265 C 144.94181 143.63833 145.62812 144.11787 146.32615 144.57339 C 145.56271 145.06564 144.81165 145.58389 144.06065 146.12265 C 143.58438 146.70473 143.50503 147.04879 143.66378 147.28692 C 143.82253 147.52508 144.19316 147.63057 144.93399 147.49828 C 145.75863 147.11022 146.57309 146.71205 147.36588 146.29215 C 147.41428 147.16854 147.49568 148.04315 147.60618 148.92713 C 147.87076 149.69442 148.10899 149.95911 148.37357 149.95911 C 148.63816 149.95911 148.87587 149.69453 149.14045 148.90078 C 149.24682 148.04986 149.32606 147.19889 149.37506 146.34796 C 150.2077 146.77938 151.05751 147.18954 151.91857 147.57786 C 152.6594 147.71015 153.00378 147.57776 153.13607 147.33963 C 153.26837 147.10151 153.16218 146.73109 152.68597 146.14901 C 151.90404 145.58805 151.12218 145.04924 150.31919 144.546 C 151.06883 144.05242 151.80321 143.53137 152.52732 143.00036 C 153.05653 142.39181 153.16242 142.04828 153.03013 141.83661 C 152.89784 141.59848 152.55378 141.54557 151.73357 141.70432 C 150.94763 142.05876 150.16185 142.42263 149.3916 142.81071 C 149.349 141.88792 149.27676 140.96779 149.19367 140.03723 C 148.9291 139.32288 148.63816 139.11119 148.37357 139.11119 z M 134.9563 141.04596 L 134.87827 141.06405 L 130.84699 149.6444 L 130.8966 149.7431 L 135.54024 148.69821 L 135.64308 149.15502 C 135.80737 149.88546 135.88403 150.47101 135.95314 150.83916 L 137.11379 150.57819 C 137.01569 150.20287 136.86217 149.57961 136.74482 149.05787 L 136.60685 148.44499 L 137.95922 148.18196 L 137.83054 147.18305 L 136.41719 147.54169 L 134.9563 141.04596 z M 165.57614 141.83299 L 158.27632 147.88223 L 158.27943 147.9923 L 162.92617 149.02325 L 162.82437 149.48007 C 162.66218 150.21098 162.48288 150.77375 162.38874 151.1363 L 163.55042 151.39416 C 163.62132 151.01275 163.74721 150.38352 163.86306 149.86144 L 163.99897 149.24753 L 165.33481 149.58497 L 165.64332 148.62637 L 164.21188 148.34991 L 165.65417 141.85004 L 165.57614 141.83299 z M 134.48656 143.8923 L 135.35783 147.76648 L 132.44948 148.4207 C 132.77236 147.6629 134.17698 144.6475 134.46072 143.8985 L 134.48656 143.8923 z M 163.99174 144.22044 L 164.01758 144.22613 L 163.15768 148.10238 L 160.24726 147.45642 C 160.86194 146.90809 163.41621 144.77746 163.99174 144.22044 z M 125.6995 144.53205 C 125.15847 144.51413 124.59858 144.60633 124.04172 144.81575 C 121.9269 145.61109 120.6008 148.0096 121.55143 150.53737 C 122.5962 153.31541 125.05327 153.96204 126.94284 153.25142 C 129.45809 152.30549 130.27886 149.62605 129.46 147.44867 C 128.77525 145.62793 127.32261 144.58582 125.6995 144.53205 z M 171.32772 144.54497 C 169.66603 144.59434 168.04063 145.59626 167.33314 147.49414 C 166.2964 150.27519 167.72459 152.37676 169.6162 153.08192 C 172.13418 154.02059 174.51284 152.53882 175.32541 150.35909 C 176.23139 147.9288 175.19882 145.6465 172.96897 144.81524 C 172.43969 144.61793 171.88162 144.52852 171.32772 144.54497 z M 171.2621 145.57075 C 171.66604 145.54031 172.08173 145.59712 172.49199 145.75006 C 174.12054 146.35716 174.85353 148.25706 174.24176 149.89813 C 173.3965 152.16557 171.42095 152.64201 170.1557 152.17034 C 168.2265 151.45117 167.86576 149.43319 168.41214 147.9675 C 168.94452 146.5394 170.05026 145.66207 171.2621 145.57075 z M 125.52794 145.65446 C 126.74949 145.74074 127.87779 146.583 128.34017 147.81247 C 129.19198 150.07746 128.01501 151.7343 126.75112 152.20962 C 124.82401 152.93437 123.22653 151.64956 122.67591 150.18545 C 121.96057 148.28337 122.65718 146.45028 124.29649 145.83378 C 124.70318 145.68083 125.12075 145.6257 125.52794 145.65446 z M 116.57809 147.38407 L 116.50781 147.42231 L 114.97613 156.77833 L 115.05106 156.85946 L 119.2322 154.58518 L 119.45544 154.99601 C 119.81319 155.6537 120.04744 156.19609 120.21457 156.53132 L 121.25998 155.96288 C 121.06297 155.62869 120.74451 155.0715 120.48897 154.60172 L 120.18873 154.04982 L 121.41759 153.4266 L 121.02072 152.50107 L 119.7593 153.23281 L 116.57809 147.38407 z M 183.60398 149.10283 L 174.92906 152.92585 L 174.90167 153.03282 L 179.08901 155.29522 L 178.8668 155.70656 C 178.51095 156.36528 178.18418 156.85736 177.9945 157.18037 L 179.04147 157.74623 C 179.21399 157.39875 179.50714 156.82768 179.76132 156.35717 L 180.06001 155.80423 L 181.2527 156.49411 L 181.81132 155.65644 L 180.51011 154.99911 L 183.67477 149.14107 L 183.60398 149.10283 z M 116.90469 150.25057 L 118.80173 153.73872 L 116.18277 155.16293 C 116.28614 154.34573 116.81278 151.06151 116.88092 150.26348 L 116.90469 150.25057 z M 181.42737 150.96628 L 181.45114 150.97869 L 179.56391 154.47253 L 176.94082 153.05556 C 177.68199 152.69617 180.72148 151.34473 181.42737 150.96628 z M 148.50586 151.80448 C 116.42332 151.80448 90.211229 178.01688 90.211229 210.15182 C 90.211231 242.26024 116.39614 268.49916 148.47899 268.49916 C 180.58803 268.49916 206.79998 242.26056 206.79998 210.15182 C 206.79998 178.01717 180.61459 151.80448 148.50586 151.80448 z M 148.50534 152.92895 L 148.50586 152.92895 C 180.00277 152.92895 205.6755 178.62789 205.6755 210.15182 C 205.6755 241.64874 179.97559 267.37468 148.47899 267.37468 C 135.28324 267.37468 122.57055 262.392 112.87858 254.81679 C 113.99366 253.21243 114.58959 252.07297 114.58959 249.76077 C 114.66229 248.57308 114.81875 248.32472 115.68358 248.02496 L 115.89958 247.95003 L 115.98692 229.75579 L 119.40376 228.57137 L 119.39394 227.8479 L 115.97813 229.03232 L 115.9988 228.39515 C 116.082 224.44289 116.40039 222.00732 117.0468 220.37858 C 117.94749 218.2258 119.46444 216.73084 121.41036 216.05637 C 122.75086 215.59174 123.47582 215.72877 123.7606 216.55039 C 123.91041 216.98281 123.96037 217.54572 123.98746 218.60195 L 124.67941 218.36269 L 124.65512 215.0771 L 124.61533 214.12264 C 124.64173 213.91977 124.6092 213.6889 124.5497 213.51595 C 124.4821 213.32152 124.32228 213.20699 124.05464 213.18471 L 124.05412 213.18471 C 123.78618 213.16301 123.41107 213.23288 122.91466 213.40485 C 121.31471 213.95942 119.92495 215.11882 117.96974 217.44336 C 115.24475 220.76132 114.317 223.11738 113.93278 227.31925 C 113.78047 229.11579 113.32593 229.90334 112.23159 230.37952 L 111.66935 230.57383 C 111.62605 230.58913 111.54071 230.61945 111.42595 230.70767 L 111.40425 231.34381 L 113.73951 230.53507 L 113.73331 231.35983 L 113.82581 237.91498 C 113.86151 239.69481 113.86807 241.38877 113.87387 243.08211 C 113.90827 245.97641 113.89277 247.04748 113.82788 248.95875 C 113.82088 252.01053 112.99702 252.52436 111.53964 253.729 C 99.196817 243.21553 91.335193 227.57139 91.335191 210.15182 C 91.335191 178.62818 117.03514 152.92895 148.50534 152.92895 z M 100.23956 158.87329 L 100.18271 158.92962 L 101.33975 168.33938 L 101.43432 168.39623 L 104.80827 165.03933 L 105.13848 165.37109 C 105.6665 165.90188 106.04357 166.35666 106.2981 166.63148 L 107.14146 165.79225 C 106.85854 165.52681 106.39672 165.08153 106.01957 164.7024 L 105.57618 164.25695 L 106.58077 163.31437 L 105.93998 162.53715 L 104.93539 163.59342 L 100.23956 158.87329 z M 199.3317 161.41216 L 189.93227 162.64619 L 189.87595 162.74076 L 193.26024 166.08784 L 192.93106 166.42064 C 192.40459 166.95296 191.95271 167.33332 191.67997 167.59008 L 192.52591 168.42672 C 192.78904 168.14165 193.23094 167.67627 193.60698 167.29604 L 194.04882 166.84904 L 194.99966 167.84587 L 195.77171 167.19888 L 194.70718 166.20256 L 199.38906 161.469 L 199.3317 161.41216 z M 101.35784 161.53256 L 104.15818 164.34738 L 102.04461 166.45009 C 101.91439 165.63674 101.49737 162.33675 101.33871 161.55168 L 101.35784 161.53256 z M 196.71946 162.58935 L 196.73858 162.60847 L 193.9465 165.43155 L 191.82673 163.33504 C 192.639 163.1982 195.93571 162.75439 196.71946 162.58935 z M 200.34714 166.17828 C 199.48951 166.22224 198.60938 166.52511 197.80466 167.13997 C 195.4463 168.94196 195.53615 171.48124 196.76183 173.08535 C 198.39336 175.22062 201.19569 175.23307 203.04413 173.8207 C 205.10505 172.24599 205.44654 169.76421 204.0017 167.87326 C 203.14434 166.75118 201.77652 166.105 200.34714 166.17828 z M 96.573631 166.2377 C 95.2153 166.11795 93.908047 166.69086 93.008474 167.87533 C 91.64193 169.67466 91.796247 172.41107 93.946918 174.04446 C 96.310528 175.83956 98.735376 175.07905 99.95637 173.47137 C 101.58167 171.33134 100.8493 168.62601 98.996739 167.21904 C 98.222178 166.63078 97.38863 166.30956 96.573631 166.2377 z M 200.99 167.27847 C 201.81373 167.33259 202.56828 167.71487 203.09995 168.4107 C 204.15516 169.79173 203.76399 171.78999 202.37234 172.85332 C 200.44953 174.32251 198.52372 173.67409 197.70389 172.60114 C 196.45387 170.96515 197.2232 169.06531 198.46612 168.11562 C 199.27349 167.49873 200.16626 167.22434 200.99 167.27847 z M 96.490432 167.44486 C 97.107086 167.50005 97.719235 167.72666 98.242263 168.12389 C 100.16935 169.58747 100.05579 171.61623 99.239101 172.69157 C 97.993849 174.33119 95.957415 174.09446 94.711729 173.14839 C 93.093403 171.91931 92.706778 169.99664 93.76605 168.6019 C 94.423043 167.73684 95.462675 167.35288 96.490432 167.44486 z M 88.058389 174.02431 L 88.019114 174.09407 L 91.705194 182.82842 L 91.811648 182.85736 L 94.139154 178.70619 L 94.547398 178.93512 C 95.20042 179.30131 95.687286 179.63541 96.007257 179.83015 L 96.589134 178.79249 C 96.244422 178.61452 95.678402 178.3125 95.211957 178.05094 L 94.66367 177.74346 L 95.372154 176.56214 L 94.543781 175.99008 L 93.865786 177.28044 L 88.058389 174.02431 z M 201.34191 175.78234 L 201.26181 175.8583 L 203.60224 180.00275 L 203.19451 180.23271 C 202.54256 180.6008 202.00416 180.8432 201.67161 181.01561 L 202.25659 182.05172 C 202.58763 181.84946 203.13966 181.52245 203.60534 181.25952 L 204.15259 180.9505 L 204.79493 182.16955 L 205.71374 181.7582 L 204.96236 180.50867 L 210.75994 177.23548 L 210.72067 177.16572 L 201.34191 175.78234 z M 89.861379 176.27637 L 93.324217 178.21837 L 91.866425 180.81924 C 91.518775 180.07248 90.21521 177.01139 89.847943 176.29962 L 89.861379 176.27637 z M 202.97592 176.96315 C 203.79465 177.05365 207.0872 177.52825 207.88622 177.58378 L 207.89914 177.60703 L 204.44147 179.55937 L 202.97592 176.96315 z M 151.9501 181.59542 C 143.92165 181.59542 138.2052 187.60558 138.2052 196.09635 C 138.2052 200.04753 139.55066 203.91583 141.82048 206.31174 C 144.25846 208.95986 147.99893 210.59882 151.69791 210.59882 C 159.97852 210.59882 165.69499 204.75612 165.69499 196.26533 C 165.69499 192.10399 164.47633 188.48859 162.16446 186.00859 C 159.51635 183.10828 155.98529 181.59542 151.9501 181.59542 z M 107.73109 182.18402 L 107.73109 182.9819 C 109.53855 182.9819 110.12597 183.31785 111.80733 185.29339 L 111.80733 203.83179 C 111.72333 208.28736 111.17785 209.00062 107.73109 209.21079 L 107.73109 210.00971 L 117.60852 210.00971 L 117.60852 209.21079 C 114.37197 209.04276 113.74141 208.16125 113.65734 203.83179 L 113.65734 187.35373 L 132.23605 210.47273 L 132.95022 210.47273 L 132.95022 188.36297 C 133.07625 183.99147 133.62364 183.27612 136.94429 182.9819 L 136.94429 182.18402 L 127.06634 182.18402 L 127.06634 182.9819 C 130.42904 183.19206 130.97462 183.90739 131.10072 188.36297 L 131.10072 202.52799 L 114.91825 182.18402 L 107.73109 182.18402 z M 167.79616 182.18402 L 167.54449 189.3288 L 168.55373 189.3288 C 169.52051 184.74711 170.40319 184.03385 175.23705 183.9498 L 177.50668 183.9498 L 177.50668 204.96661 C 177.46468 208.5815 177.08684 209.00062 173.55601 209.21079 L 173.55601 210.00971 L 176.15895 210.00971 C 177.73721 208.25752 179.54067 206.807 181.58963 205.64718 C 181.74443 201.44916 181.79318 199.63287 181.79427 198.60059 L 181.79427 197.76756 C 181.77897 197.42304 181.75909 197.36258 181.68627 197.15209 C 181.56887 196.81357 181.3426 196.70483 180.9199 196.85134 C 180.57263 196.97162 180.35048 197.08902 179.96544 197.48334 L 179.67088 197.77893 L 178.65906 196.60794 L 178.96085 196.3599 C 180.07332 195.44384 180.9915 194.64501 181.79427 193.91508 L 181.79427 183.9498 L 184.0639 183.9498 C 188.93981 184.0338 189.82246 184.74711 190.74721 189.3288 L 191.75593 189.3288 L 191.50324 182.18402 L 167.79616 182.18402 z M 151.9501 183.10799 C 153.88363 183.10799 155.81743 183.86511 157.33065 185.21019 C 159.60047 187.26983 160.90304 191.22146 160.90304 196.22347 C 160.90304 198.70347 160.39926 201.60264 159.51656 203.78838 C 159.13824 204.83924 158.423 205.89119 157.45622 206.85796 C 155.98503 208.32915 154.09365 209.08522 151.86586 209.08522 C 149.93232 209.08522 148.04092 208.32794 146.52769 207.02488 C 144.38398 205.09135 142.99664 200.84679 142.99664 196.18109 C 142.99664 191.89365 144.17367 187.81675 145.93909 185.84116 C 147.57838 184.0337 149.63824 183.10799 151.9501 183.10799 z M 81.289293 189.15155 L 81.267589 189.22855 L 86.892568 196.85961 L 87.002639 196.86271 L 88.2961 192.28262 L 88.746202 192.40975 C 89.46672 192.61318 90.018416 192.82434 90.375043 192.93892 L 90.698537 191.79377 C 90.32178 191.70127 89.700624 191.53962 89.185968 191.39431 L 88.581354 191.22377 L 88.993732 189.90913 L 88.054254 189.54687 L 87.69717 190.96022 L 81.289293 189.15155 z M 83.56874 190.91992 L 87.389696 191.99892 L 86.579926 194.86851 C 86.067383 194.22368 84.084946 191.55198 83.561505 190.94576 L 83.56874 190.91992 z M 208.866 191.9984 L 208.76782 192.04905 L 209.85044 196.68391 L 209.39465 196.79036 C 208.66558 196.96061 208.08068 197.04226 207.7131 197.11437 L 207.98337 198.27296 C 208.35788 198.17178 208.97982 198.01268 209.50059 197.89107 L 210.11244 197.74844 L 210.38684 199.09823 L 211.38419 198.96129 L 211.01367 197.55155 L 217.49752 196.03743 L 217.47943 195.9594 L 208.866 191.9984 z M 184.28921 192.03509 C 183.11701 193.26481 181.5421 194.73113 179.2058 196.65497 L 179.69 197.21359 C 180.09208 197.67767 180.40669 196.62605 180.79588 196.49115 C 181.40128 196.28131 181.85211 196.46434 182.04697 197.02652 C 182.22689 197.54543 182.28234 197.2838 181.9648 205.87043 C 177.98187 208.07436 174.90859 211.36816 172.66149 215.92511 C 170.66872 219.958 169.98141 224.26426 170.92568 226.98852 C 171.34534 228.19928 172.23449 228.6665 173.27231 228.30678 C 176.73171 227.10772 182.08178 216.97014 180.50804 212.42972 C 180.31319 211.86756 180.09111 211.50927 179.63678 211.03704 C 180.04178 217.09665 177.55567 224.59472 174.70168 225.58395 C 173.83686 225.8837 173.17934 225.3848 172.78965 224.26052 C 170.81122 218.55251 175.4161 210.17437 181.85576 207.65171 C 181.82216 210.90866 180.98358 222.04947 181.51728 225.54571 C 184.11475 223.67667 185.70461 222.2538 186.91489 220.57495 L 186.34593 220.19152 C 185.05063 219.31839 185.00533 221.77019 184.57291 221.92009 C 184.22698 222.03997 183.87685 221.87028 183.75694 221.52425 C 183.57701 221.00534 183.57692 219.74618 184.10576 207.01764 C 184.76935 206.83599 185.65028 206.72428 186.22914 206.7174 C 185.72305 205.53658 185.25554 205.16558 184.16932 205.10613 L 184.4432 198.90909 C 184.62274 194.53596 184.62068 193.13114 184.28921 192.03509 z M 210.10262 193.59056 C 210.86302 193.90723 213.89007 195.28748 214.64136 195.56511 L 214.64704 195.59095 L 210.78061 196.49374 L 210.10262 193.59056 z M 83.366685 196.98621 C 81.257709 197.06991 79.689458 198.48077 79.405687 200.54362 C 79.097775 202.78197 80.574992 205.09053 83.250413 205.45856 C 86.190726 205.86304 87.930033 204.01066 88.20515 202.01071 C 88.571364 199.34854 86.606083 197.35078 84.301512 197.03376 C 83.980329 196.98957 83.667968 196.97426 83.366685 196.98621 z M 83.442133 198.16495 C 83.654963 198.15353 83.871207 198.16199 84.088088 198.19182 C 86.485371 198.5216 87.381478 200.34538 87.197459 201.68308 C 86.916876 203.72276 85.026381 204.51522 83.476756 204.30205 C 81.463568 204.02511 80.183484 202.54015 80.422162 200.8051 C 80.629411 199.29852 81.952322 198.24489 83.442133 198.16495 z M 213.13706 199.9943 C 210.18132 200.26384 208.90488 202.46112 209.08821 204.47154 C 209.33225 207.14769 211.69787 208.65052 214.01452 208.43926 C 216.59747 208.20372 218.20766 206.28491 217.99154 203.91499 C 217.78636 201.6649 215.82652 199.74905 213.13706 199.9943 z M 213.91324 201.16425 C 215.57404 201.2861 216.80283 202.36353 216.94199 203.88967 C 217.09983 205.62051 215.70493 207.10354 213.96078 207.26259 C 211.55091 207.48234 210.26606 205.90826 210.14344 204.56353 C 209.95646 202.51315 211.61962 201.31405 213.17737 201.172 C 213.43034 201.14894 213.67598 201.14685 213.91324 201.16425 z M 84.724742 206.86055 L 84.767117 208.31782 L 78.109125 208.32971 L 78.109125 208.41032 L 85.606342 214.21255 L 85.713312 214.18568 L 85.705044 209.42628 L 86.172716 209.42525 C 86.9214 209.42425 87.509872 209.47663 87.884239 209.48933 L 87.882172 208.29922 C 87.494484 208.31332 86.852702 208.32777 86.317926 208.32867 L 85.689541 208.32971 L 85.727265 206.95253 L 84.724742 206.86055 z M 181.447 208.25839 C 180.45159 208.70886 179.51395 209.31084 178.63891 210.00971 L 179.18358 210.00971 L 181.36949 210.00971 C 181.38979 209.52365 181.43802 208.62792 181.44752 208.25839 L 181.447 208.25839 z M 184.41065 209.08935 C 184.39345 209.51716 184.39366 209.61392 184.37706 210.00971 L 185.82968 210.00971 L 185.82968 209.21079 C 185.2782 209.18389 184.82344 209.1429 184.41065 209.08935 z M 211.5294 209.19322 L 211.42088 209.21492 L 211.19506 213.96864 L 210.72739 213.94642 C 209.97955 213.91082 209.39483 213.82976 209.02155 213.79862 L 208.9647 214.98718 C 209.35261 214.99218 209.99426 215.00932 210.52843 215.03472 L 211.1563 215.0647 L 211.05088 216.43826 L 212.04772 216.57933 L 212.07718 215.12154 L 218.72742 215.4378 L 218.73155 215.3577 L 211.5294 209.19322 z M 84.755748 209.40096 L 84.760915 212.38217 C 84.091596 211.90205 81.45418 209.87508 80.784931 209.43507 L 80.784931 209.40819 L 84.755748 209.40096 z M 212.28336 211.06236 C 212.92821 211.57488 215.46221 213.73028 216.10897 214.20273 L 216.10794 214.22909 L 212.14177 214.04047 L 212.28336 211.06236 z M 165.41542 211.30007 C 165.2773 211.29407 165.13061 211.31673 164.97927 211.36983 C 162.77391 212.13421 159.73063 216.62822 156.72293 224.1613 C 157.3292 217.94492 157.11771 214.82087 156.63146 214.11747 C 155.0136 215.59853 153.46605 216.86252 151.71497 218.09914 L 152.08445 218.74613 C 153.00237 218.04048 153.24678 217.90692 153.54948 217.802 C 153.93866 217.66714 154.22952 217.80826 154.39439 218.28414 C 154.96394 219.92734 154.23276 230.25498 153.61098 235.1689 C 154.82816 234.0689 155.40248 233.62881 156.1209 233.18607 C 156.9529 221.6118 162.19806 214.80482 163.14941 214.47507 C 163.40887 214.38517 163.65635 214.54137 163.77625 214.88745 C 163.86625 215.14689 163.87219 215.58027 163.66979 216.81291 L 163.24346 219.91556 C 162.717 223.74837 162.14717 228.77212 162.76391 231.94894 C 165.02063 230.63393 166.59584 229.16816 167.93413 227.29961 L 167.34916 226.87276 C 166.8504 227.53002 166.19167 228.14503 165.80248 228.27991 C 165.45653 228.3998 165.16637 228.25868 165.03147 227.8696 C 164.46193 226.2264 167.08311 214.2251 166.3487 212.10622 C 166.16887 211.58761 165.82916 211.31578 165.41542 211.30007 z M 149.01694 217.58134 C 147.97101 218.47667 147.29574 218.9042 146.4326 219.34867 C 146.31424 222.7803 146.09075 224.65025 145.62077 226.50844 C 143.81919 234.44691 141.41946 237.16768 140.3384 237.54239 C 139.81951 237.72232 139.39739 237.48139 139.21754 236.96258 C 138.46813 234.80048 141.179 223.05896 139.97357 220.27988 C 138.87117 221.29169 133.88223 221.79025 135.32734 223.92462 L 135.72628 224.51322 C 136.12461 225.10154 136.58666 223.92411 136.84611 223.83419 C 137.32179 223.66941 137.62794 223.85333 137.79282 224.32873 C 137.94263 224.76115 137.95122 225.48432 137.78093 226.94821 C 137.53406 229.31031 136.42277 236.86478 137.20216 239.11336 C 137.5319 240.06471 138.24573 240.44717 139.11057 240.1474 C 140.53756 239.6528 142.40644 237.358 143.86067 234.28678 C 144.51052 232.94746 145.15729 231.31959 145.77373 229.60438 C 145.59533 232.86304 145.70868 235.14767 146.20213 237.68916 C 146.94707 237.04344 149.65544 234.79666 151.04214 233.3473 L 150.54605 232.89048 C 149.8726 233.46296 149.44107 233.7571 149.00867 233.90696 C 148.61948 234.04182 148.22734 233.88705 148.10744 233.54109 C 147.58286 232.02763 150.87992 217.58134 149.01694 217.58134 z M 131.22526 223.4771 C 131.35607 223.44794 130.94495 223.50621 130.79376 223.55875 C 128.84786 224.23321 126.08204 226.5968 124.27323 229.06436 C 120.8967 233.57687 119.55965 239.22216 120.89359 243.07074 C 121.49311 244.80043 123.15384 245.67788 124.75382 245.12333 C 126.65646 244.46385 128.88453 241.94796 130.80927 238.27775 C 132.69247 234.76722 133.26092 231.51896 132.46653 229.22714 C 131.92697 227.67041 130.52903 226.84688 129.14529 227.32648 C 128.19394 227.65622 127.03632 228.93009 126.26019 230.6038 C 125.79312 231.49224 125.71599 232.38981 125.95582 233.08168 C 126.04572 233.34112 126.10696 233.51451 126.31342 233.83048 C 126.57186 231.22217 127.26238 229.72226 128.38668 229.33256 C 129.07856 229.09276 129.77881 229.57702 130.10854 230.52835 C 130.67809 232.17154 130.57959 234.82214 129.77057 237.3791 C 128.88018 240.40018 127.4443 242.54462 126.01731 243.03922 C 124.76326 243.47388 123.5679 242.82151 123.08829 241.43776 C 122.32388 239.23239 122.47765 235.06252 123.45623 232.15616 C 124.4913 229.13336 126.80886 226.87702 130.13851 225.72296 C 130.78715 225.49812 131.32034 225.36145 132.17197 225.16331 L 132.17301 225.16331 L 132.15389 224.83051 C 132.19379 224.52609 132.13172 224.20819 132.07172 224.03521 C 131.94806 223.67863 131.63182 223.47041 131.22578 223.4771 L 131.22526 223.4771 z M 87.354556 224.70752 L 86.366502 224.90079 L 86.816604 226.28778 L 80.429914 228.16829 L 80.452134 228.24529 L 89.276919 231.70916 L 89.372003 231.65335 L 88.027899 227.08774 L 88.476451 226.95544 C 89.194648 226.74396 89.774456 226.62926 90.137331 226.53635 L 89.800918 225.39482 C 89.432771 225.51716 88.820984 225.71144 88.307986 225.86249 L 87.705439 226.03974 L 87.354556 224.70752 z M 209.15332 226.91617 L 207.60148 231.41564 L 207.15913 231.26319 C 206.45136 231.01908 205.91237 230.77673 205.56284 230.64204 L 205.17475 231.76704 C 205.54563 231.88081 206.15696 232.0774 206.66252 232.25176 L 207.25628 232.4564 L 206.76949 233.74521 L 207.68675 234.16069 L 208.12393 232.76956 L 214.41812 234.941 L 214.44447 234.86504 L 209.26288 226.92599 L 209.15332 226.91617 z M 87.109609 227.3301 L 87.951935 230.19039 C 87.174738 229.91751 84.07416 228.71171 83.308291 228.47731 L 83.300539 228.45199 L 87.109609 227.3301 z M 209.46183 228.93258 C 209.93684 229.60553 211.76426 232.38516 212.25236 233.02019 L 212.24306 233.04551 L 208.4898 231.75102 L 209.46183 228.93258 z M 88.844904 232.82124 C 88.273854 232.8574 87.706142 232.99649 87.176272 233.2362 C 84.813172 234.30524 83.920608 236.64595 84.901475 238.81415 C 85.832748 240.87273 88.312404 242.04032 90.772952 240.9272 C 93.477118 239.70387 93.962515 237.20975 93.13043 235.37043 C 92.299724 233.53416 90.558054 232.71274 88.844904 232.82124 z M 89.165814 233.93951 C 90.60851 233.87633 91.6862 234.70714 92.10362 235.62985 C 92.952235 237.50571 91.773857 239.1828 90.348688 239.82753 C 88.497187 240.66512 86.622772 240.08998 85.900897 238.49427 C 85.184534 236.91076 86.01672 235.05206 87.612421 234.33019 C 88.163608 234.08084 88.684916 233.96057 89.165814 233.93951 z M 206.72505 235.40351 C 204.93321 235.25205 203.49551 236.25335 202.80901 237.60286 C 201.59057 239.99799 202.79282 242.52913 204.86625 243.58389 C 207.17798 244.75989 209.56311 243.99343 210.64212 241.87236 C 211.66658 239.85853 211.02708 237.19335 208.62002 235.96885 C 207.95868 235.63241 207.32233 235.45399 206.72505 235.40351 z M 206.27701 236.58896 C 206.89007 236.57336 207.50447 236.72142 208.02729 236.98739 C 209.83854 237.90879 210.56135 239.73102 209.76724 241.29204 C 208.9792 242.84113 207.00811 243.35376 205.44709 242.55966 C 203.29027 241.46246 203.04115 239.44562 203.6534 238.24209 C 204.23686 237.09516 205.25524 236.61498 206.27701 236.58896 z M 96.206212 240.86519 C 95.885543 241.08352 95.349913 241.43745 94.897764 241.72302 L 94.366531 242.0584 L 93.665281 240.87294 L 92.767145 241.32924 L 93.579499 242.54002 L 87.950385 246.09484 L 87.992759 246.16306 L 97.428359 247.08186 L 97.50484 247.00228 L 94.963393 242.97824 L 95.358718 242.72864 C 95.991725 242.32885 96.517672 242.05992 96.841315 241.87133 L 96.206212 240.86519 z M 202.25814 242.8599 L 199.53479 246.76354 L 199.15135 246.49585 C 198.53729 246.06753 198.08544 245.68694 197.78606 245.46181 L 197.10496 246.43798 C 197.43061 246.64882 197.96497 247.00484 198.40359 247.31079 L 198.91881 247.67046 L 198.09818 248.77685 L 198.86713 249.42694 L 199.6676 248.20893 L 205.12825 252.018 L 205.17424 251.95237 L 202.36097 242.89917 L 202.25814 242.8599 z M 94.146389 243.46245 L 95.73854 245.98322 C 94.916347 245.93322 91.604216 245.62154 90.803441 245.60547 L 90.788971 245.58273 L 94.146389 243.46245 z M 202.00389 244.88303 C 202.27681 245.66022 203.27434 248.83407 203.5702 249.57835 L 203.5547 249.60006 L 200.29805 247.32836 L 202.00389 244.88303 z M 106.93372 254.31398 C 106.68725 254.61357 106.27259 255.10359 105.9188 255.50461 L 105.5028 255.97589 L 104.49666 255.03487 L 103.76337 255.72475 L 104.88268 256.65854 L 100.4783 261.65152 L 100.53825 261.70423 L 109.85241 259.93741 L 109.90305 259.83974 L 106.33376 256.6911 L 106.6433 256.34021 C 107.13859 255.77877 107.56799 255.37288 107.82566 255.10101 L 106.93372 254.31398 z M 190.91206 256.6358 L 187.20272 259.61805 L 186.9092 259.25321 C 186.4401 258.66971 186.11324 258.17772 185.88911 257.87759 L 184.96203 258.62328 C 185.21538 258.91707 185.62793 259.409 185.96301 259.82579 L 186.35678 260.31568 L 185.25814 261.14716 L 185.81366 261.9869 L 186.92419 261.04277 L 191.09603 266.2316 L 191.15804 266.18147 L 190.99991 256.70247 L 190.91206 256.6358 z M 105.68574 257.38511 L 107.92178 259.3576 C 107.11862 259.54048 103.85226 260.17087 103.07918 260.38028 L 103.05902 260.36271 L 105.68574 257.38511 z M 190.10022 258.50649 C 190.14392 259.32904 190.21023 262.65502 190.28522 263.45244 L 190.26455 263.46949 L 187.77633 260.37459 L 190.10022 258.50649 z M 112.4631 260.25315 C 111.02625 260.32739 109.68924 261.13601 108.88709 262.34863 C 107.45613 264.51183 107.9472 266.96866 109.93199 268.2816 C 111.81643 269.52816 114.53674 269.19558 116.02671 266.94318 C 117.6642 264.46777 116.74719 262.09816 115.06346 260.98437 C 114.22299 260.4284 113.32521 260.20861 112.4631 260.25315 z M 112.76747 261.30012 C 113.36003 261.29958 113.90991 261.47137 114.33224 261.75074 C 116.04942 262.88665 115.94558 264.93371 115.08258 266.23832 C 113.96141 267.9332 112.06812 268.4443 110.6074 267.47803 C 109.15783 266.51915 108.8727 264.50337 109.83897 263.04265 C 110.67339 261.78125 111.77989 261.30102 112.76747 261.30012 z M 182.04387 261.71766 C 181.26444 261.69997 180.50211 261.9148 179.85227 262.30316 C 177.54555 263.6817 177.21508 266.46458 178.40843 268.46144 C 179.73896 270.68783 182.16582 271.30848 184.20859 270.08769 C 186.14807 268.92864 187.02593 266.33236 185.64055 264.01416 C 184.68895 262.42184 183.34291 261.74715 182.04387 261.71766 z M 181.54209 262.85765 C 182.83167 262.7506 183.99486 263.55333 184.59668 264.56038 C 185.63915 266.30476 185.28048 268.23272 183.77709 269.13116 C 182.28519 270.02275 180.34401 269.40724 179.44558 267.90385 C 178.20421 265.82665 179.06731 263.987 180.22641 263.29431 C 180.66824 263.03026 181.11223 262.89333 181.54209 262.85765 z M 120.59284 263.99763 C 120.43768 264.35319 120.17289 264.93781 119.94223 265.42028 L 119.67093 265.98717 L 118.4462 265.35723 L 117.92892 266.22126 L 119.26114 266.81399 L 116.38948 272.82086 L 116.46182 272.85548 L 124.93779 268.60872 L 124.96001 268.50071 L 120.6657 266.44812 L 120.86776 266.02593 C 121.19068 265.35046 121.49264 264.84274 121.66616 264.51077 L 120.59284 263.99763 z M 171.41506 266.28069 L 170.31952 266.74423 C 170.48288 267.0961 170.74524 267.6816 170.95359 268.17412 L 171.19802 268.75289 L 169.91437 269.2526 L 170.21875 270.21275 L 171.54528 269.60814 L 174.13892 275.73955 L 174.21282 275.70854 L 176.65246 266.54734 L 176.58632 266.45949 L 172.20261 268.31364 L 172.02019 267.88266 C 171.72851 267.19313 171.54859 266.63067 171.41506 266.28069 z M 120.23214 267.29303 L 122.92241 268.57874 C 122.19986 268.97424 119.23023 270.47432 118.54387 270.88713 L 118.51958 270.87524 L 120.23214 267.29303 z M 175.29389 268.03666 C 175.11105 268.83982 174.26519 272.05709 174.11929 272.84463 L 174.095 272.85497 L 172.54781 269.19834 L 175.29389 268.03666 z M 136.83422 269.6686 C 136.78512 270.05343 136.69535 270.689 136.60943 271.21682 L 136.50866 271.83746 L 135.15577 271.57649 L 134.90204 272.55111 L 136.34691 272.74541 L 135.27721 279.31711 L 135.35628 279.33002 L 142.29901 272.8746 L 142.29022 272.76453 L 137.59283 272.00024 L 137.66776 271.53825 C 137.78804 270.79929 137.93549 270.22713 138.00883 269.8598 L 136.83422 269.6686 z M 154.73391 270.45511 L 153.55207 270.59257 C 153.61007 270.97616 153.69761 271.61217 153.75929 272.14338 L 153.83163 272.76712 L 152.45911 272.88649 L 152.48185 273.89315 L 153.92465 273.68541 L 154.69256 280.29844 L 154.77266 280.28966 L 159.68554 272.18162 L 159.64678 272.07879 L 154.91891 272.62759 L 154.86516 272.16302 C 154.77876 271.41933 154.76381 270.8285 154.73391 270.45511 z M 147.26769 270.98583 C 144.58115 270.92433 142.81938 273.10382 142.76616 275.42949 C 142.70686 278.02246 144.43071 279.84041 146.80984 279.89485 C 149.06868 279.94655 151.1943 278.21673 151.25608 275.51682 C 151.32398 272.54959 149.28594 271.03201 147.26769 270.98583 z M 147.05685 272.02401 C 149.1152 272.07111 150.11726 273.85948 150.08148 275.42329 C 150.03498 277.45489 148.70495 278.89519 146.95402 278.85512 C 145.21645 278.81532 143.90122 277.26103 143.94128 275.5101 C 143.99668 273.09088 145.7069 271.99313 147.05685 272.02401 z M 137.41352 272.933 L 140.35597 273.41152 C 139.77353 273.99399 137.34503 276.26736 136.80218 276.85627 L 136.77531 276.85214 L 137.41352 272.933 z M 157.96368 273.22962 C 157.56269 273.94914 155.84797 276.79973 155.48683 277.51463 L 155.45996 277.51722 L 155.00211 273.57327 L 157.96368 273.22962 z " /><rect
       style="display:none;stroke-width:0.264583"
       width="150.54791"
       height="150.68021"
       id="rect1"
       x="72.596802"
       y="134.82515" /></g><style
     type="text/css"
     id="style1">
    .background  { fill: none; fill-opacity: 1; stroke: none; stroke-width: 1; }
    .fillable { fill: #000000; fill-opacity: 1; stroke: none; stroke-width: 1; }
  </style></svg>
