<?xml version="1.0" encoding="UTF-8" standalone="no"?>
<!-- Created with Inkscape (http://www.inkscape.org/) -->

<svg
   width="256"
   height="256"
   viewBox="0 0 67.733333 67.733334"
   version="1.1"
   id="svg1"
   inkscape:version="1.3.2 (091e20ef0f, 2023-11-25, custom)"
   inkscape:export-filename="tkoaly-dark.png"
   inkscape:export-xdpi="96"
   inkscape:export-ydpi="96"
   sodipodi:docname="tkoaly.svg"
   xmlns:inkscape="http://www.inkscape.org/namespaces/inkscape"
   xmlns:sodipodi="http://sodipodi.sourceforge.net/DTD/sodipodi-0.dtd"
   xmlns="http://www.w3.org/2000/svg"
   xmlns:svg="http://www.w3.org/2000/svg">
  <sodipodi:namedview
     id="namedview1"
     pagecolor="#cccccc"
     bordercolor="#000000"
     borderopacity="0.24705882"
     inkscape:showpageshadow="2"
     inkscape:pageopacity="0.0"
     inkscape:pagecheckerboard="true"
     inkscape:deskcolor="#d9d9d9"
     inkscape:document-units="mm"
     inkscape:zoom="1.6819305"
     inkscape:cx="131.69391"
     inkscape:cy="83.832241"
     inkscape:window-width="1341"
     inkscape:window-height="1022"
     inkscape:window-x="0"
     inkscape:window-y="0"
     inkscape:window-maximized="1"
     inkscape:current-layer="layer1" />
  <defs
     id="defs1">
    <clipPath
       clipPathUnits="userSpaceOnUse"
       id="kl-clip-5">
      <path
   id="kl-clip-path-3"
   d="M 428.04492,1235.9902 V 1363.25 h 168.42774 c 0.5979,-5.8194 1.22617,-11.6888 1.8125,-17.4883 l 0.78515,-6.3808 c -0.81312,-0.9821 -1.7496,-1.7047 -2.77539,-2.0274 -1.05263,-0.3312 -2.19853,-0.2641 -3.44922,0.3613 h -0.002 -0.004 c -2.09582,0.9981 -5.0941,2.4972 -7.28711,3.6934 l -0.13671,0.074 -0.12696,-0.09 c -1.0449,-0.7315 -2.3417,-2.1275 -2.9707,-3.1758 l -0.12891,-0.2168 0.2168,-0.127 c 11.09227,-6.4954 22.18814,-13.7926 32.68359,-21.1894 l 0.3125,-0.2207 0.0762,0.3633 c 1.30367,6.5184 1.70507,12.3391 1.70507,18.9492 v 0.01 l -0.30078,6.6132 -0.80078,6.711 -0.80078,6.4082 -1.20313,6.3086 h 0.002 c -0.0856,0.4602 -0.16299,0.9592 -0.24805,1.4238 H 746.00773 V 1235.99 Z" />

    </clipPath>
  </defs>
  <g
     inkscape:label="Layer 1"
     inkscape:groupmode="layer"
     id="layer1"
     transform="translate(-421.07924,84.598)">
    <path
       id="tko"
       class="fillable"
       d="m 523.63333,1250.6884 0.7,21.9 h -2.7 c -0.5,-3.9 -1.3,-6.9 -2.1,-8.5 -1.3,-2.7 -3.5,-4.7 -5.8,-6 -2.4,-1.3 -5.8,-2 -9.6,-2 h -13.5 v 74.1 c 0,6.1 0.7,10.3 1.9,11.7 1.7,2 4.5,3.1 8.2,3.1 h 3.4 v 2 h -40.4 v -2 h 3.4 c 4,0 6.9,-1.4 8.5,-3.9 1,-1.5 1.6,-5.2 1.6,-10.9 v -74.1 h -11.5 c -4.3,0 -7.6,0.4 -9.4,1 -2.4,0.8 -4.7,2.7 -6.3,5.1 -1.6,2.4 -2.8,6.1 -3.1,10.4 h -2.6 l 0.7,-21.9 z m 47.8,43.2 35.3,34.5 c 7.3,7.1 16.5,15.7 27.3,16.6 v 2 h -45.8 v -2 c 3.1,0 7.7,-1.9 7.7,-5.7 0,-1 -0.3,-2.2 -0.7,-2.9 -5.3,-10.6 -28.3,-28.3 -37.4,-37.1 v 31 c 0,5 0.3,8.5 0.8,9.9 0.4,1.2 1.5,2.4 2.9,3.2 1.9,1.1 4.2,1.7 6.4,1.7 h 3.3 v 2 h -40.3 v -2 h 3.3 c 3.9,0 6.8,-1.2 8.5,-3.5 1.1,-1.4 1.7,-5.4 1.7,-11.3 v -62.6 c 0,-5 -0.4,-8.3 -0.9,-9.9 -0.4,-1.1 -1.4,-2.4 -2.9,-3.1 -1.9,-1.2 -4.3,-1.8 -6.4,-1.8 h -3.3 v -2 h 40.4 v 2 h -3.3 c -2.1,0 -4.5,0.6 -6.4,1.7 -1.3,0.7 -2.5,2.1 -2.9,3.5 -0.4,1.4 -0.8,4.9 -0.8,9.6 v 30 c 0.8,-0.8 4.1,-4 9.6,-8.9 13.9,-12.7 22.6,-21.3 25.3,-25.5 1.3,-2 1.9,-4 1.9,-5.6 0,-1.2 -0.5,-2.4 -1.4,-3.3 -0.9,-0.9 -2.8,-1.4 -5,-1.4 h -2.4 v -2 h 35.4 v 2 c -2,0 -4,0.4 -5.6,0.9 -1.7,0.5 -3.9,1.9 -6.2,3.5 -2.4,1.7 -5.5,4.6 -9.1,8.2 -0.9,0.9 -5.8,5.8 -14.4,14.2 z m 114.4,-45.2 c 12.4,0 23.1,4.8 32.2,14.2 9.1,9.4 13.6,21.3 13.6,35.4 0,14.5 -4.6,26.7 -13.7,36.2 -9.1,9.6 -20.4,14.5 -33.3,14.5 -13.1,0 -24.2,-4.8 -33.1,-14.1 -8.8,-9.3 -13.5,-21.5 -13.5,-36.4 0,-15.1 5.2,-27.8 15.5,-37.3 8.9,-8.3 19.8,-12.5 32.3,-12.5 z m -1.3,4.7 c -8.6,0 -15.5,3.4 -20.6,9.7 -6.3,7.9 -9.6,19.7 -9.6,35.1 0,15.7 3.4,28 9.9,36.4 5,6.4 12,9.7 20.3,9.7 8.9,0 16.4,-3.6 22.2,-10.6 5.8,-7.1 8.8,-18.3 8.8,-33.5 0,-16.5 -3.3,-29 -9.7,-37 -5,-6.5 -12.2,-9.8 -21.3,-9.8 z"
       clip-path="url(#kl-clip-5)"
       transform="matrix(0.21376748,0,0,0.21376748,329.34038,-349.79246)"
       style="fill:#f9f9f9;fill-opacity:1;stroke:none;stroke-width:1" />
    <g
       id="aly-2"
       transform="matrix(0.21376748,0,0,0.21376748,503.94786,-349.79246)"
       style="fill:#f9f9f9">
          <path
   class="fillable"
   d="m -103.32606,1368.2402 c -0.398,8e-4 -0.80232,0.026 -1.21094,0.072 v -0.01 c -3.26897,0.3673 -6.82347,2.1471 -9.91211,3.9903 l -0.0586,0.035 h -0.0449 c -0.0467,0.038 -0.11663,0.1 -0.22461,0.1 l 0.16016,-0.057 c -18.95519,15.6629 -31.94088,37.1281 -42.83398,59.1133 -0.34616,0.7501 -1.10479,1.036 -1.76758,0.8887 -0.6628,-0.1473 -1.2517,-0.7248 -1.3086,-1.5782 -0.19988,-5.1969 -0.49948,-10.4994 -0.59961,-15.5058 v -0.1778 c -0.99892,-6.8909 -2.19745,-13.6831 -3.5957,-20.4746 l -0.004,-0.025 v -0.025 c 0,0.034 -0.004,0.01 -0.0332,-0.066 -0.0219,-0.055 -0.0385,-0.153 -0.0508,-0.248 -1.00778,-1.9249 -1.70891,-4.2224 -2.30664,-6.3145 l -0.01,-0.033 v -0.035 c 0,0.033 -0.01,-0.033 -0.0371,-0.088 -0.0275,-0.055 -0.0693,-0.1138 -0.0898,-0.1348 -1.37847,-1.3785 -2.70753,-3.5432 -3.78516,-5.3066 -4.82295,3.6565 -9.7458,7.8755 -14.57812,11.8203 h -0.002 c -0.63088,0.5256 -2.63707,1.9596 -4.8086,3.582 -2.17252,1.6231 -4.49765,3.4274 -5.67187,4.6016 -0.51163,0.5116 -0.50424,1.2252 -0.0176,1.6308 l 0.008,0.01 0.01,0.01 c 0.0572,0.057 0.0734,0.093 0.0937,0.1269 h 0.0625 l 0.0742,0.1114 c 0.38377,0.5757 0.72025,0.8549 1.00586,0.9609 0.2856,0.1059 0.54717,0.066 0.86718,-0.086 0.64003,-0.3032 1.40578,-1.08 2.39453,-1.6524 l 0.0566,-0.035 h 0.043 c 0.0467,-0.038 0.11664,-0.1 0.22461,-0.1 l -0.10156,0.021 c 2.62656,-1.1618 5.203,-1.7619 7.4043,-1.1757 2.19991,0.5858 3.97015,2.3826 4.93554,5.832 l 0.002,0.01 c 1.10841,3.0317 1.60799,6.5404 1.9082,9.6426 l 0.002,0.012 v 0.1973 c 1.19676,4.996 1.99901,9.9875 2.69727,14.9746 v 0.01 c 1.10472,6.6331 1.00349,14.6363 1.20312,21.4258 0.051,1.3783 0.0496,7.3315 0.0996,13.7168 0.05,6.3832 0.15084,13.1855 0.39844,16.1621 0.0849,0.7638 0.72258,1.1517 1.38867,0.9863 0,0 0.002,0 0.002,0 0.70279,-0.2002 0.98304,-0.2321 1.19531,-0.377 0.21013,-0.1432 0.46422,-0.4854 1.04297,-1.3046 0.001,-0.01 0.001,-0.01 0.002,-0.01 0.0111,-0.025 0.0237,-0.048 0.0371,-0.072 0.0268,-0.048 0.0596,-0.102 0.0996,-0.164 0.08,-0.1241 0.18538,-0.2778 0.29297,-0.4297 0.10758,-0.1519 0.21789,-0.3028 0.30859,-0.4238 0.0654,-0.087 0.10404,-0.1336 0.14844,-0.1856 3.60407,-23.3735 9.21518,-34.9206 18.30273,-54.6934 3.30365,-7.8086 7.60643,-15.7086 12.10743,-22.9121 0.006,-0.023 -0.002,-0.024 0.0117,-0.051 0.0423,-0.085 0.17917,-0.1895 0.3125,-0.1895 l -0.20312,0.1035 c 2.7013,-3.7018 6.16018,-8.3416 10.26172,-11.9902 4.09999,-3.6473 8.85847,-6.3147 14.14844,-6.0117 0.27912,0 0.50722,0.1256 0.70507,0.2246 h 0.002 c 3.36494,1.7335 4.70593,4.3051 6.20507,7.1035 h 0.002 0.002 c 0.24472,0.4895 0.24895,1.1641 -0.12305,1.6601 -31.90186,46.6023 -65.79901,92.4005 -97.29296,139.1915 h -0.004 l -0.004,0.01 c -0.24003,0.32 -0.2389,0.7116 -0.0762,1.0371 l 0.002,0.012 1.90235,4.2032 -0.0508,-0.072 c 0.10895,0.1089 0.13515,0.2219 0.16015,0.2969 0.025,0.075 0.0481,0.1115 0.0391,0.1015 h 0.004 l 3.29688,3.5977 h 0.004 0.004 c 0.046,0.045 0.0884,0.085 0.11523,0.1055 0.0287,0.022 0.0333,0.012 0,0.012 h 0.0723 l 4.38476,2.7539 0.0195,0.019 c 0.041,0.041 0.023,0.027 0.12304,0.027 h 0.0391 l 5.30078,1.6992 h 0.18164 0.0215 c 11.34572,1.9905 25.09468,0.7882 35.01953,-5.1621 5.26842,-3.4791 9.6875,-8.1013 9.6875,-14.791 v -0.031 l 0.14453,-0.5781 c -4.65225,3.54 -9.56946,6.7231 -14.78515,9.2344 l -0.0527,0.025 h -0.0566 c 8e-4,10e-4 0.01,-0.01 -0.0234,0.027 l -0.0391,0.039 -0.0527,0.019 c -11.52714,4.1097 -24.89518,6.6334 -36.58789,1.291 l 0.10351,0.023 c -0.13333,0 -0.22948,-0.06 -0.30078,-0.1132 -0.0622,-0.047 -0.10734,-0.096 -0.15234,-0.1407 l -2.70117,-2.0996 0.043,0.027 c -0.28945,-0.1447 -0.41172,-0.4133 -0.51172,-0.6133 h -0.002 l -1.29882,-2.6973 c -0.24473,-0.4895 -0.24896,-1.1661 0.12304,-1.6621 30.29698,-42.8959 59.89587,-86.2941 89.69531,-129.1933 l 12.099609,-17.2989 4.10157,-6.0039 h 0.0039 c 0.22797,-0.304 0.24093,-0.7964 -0.01367,-1.2207 h -0.002 -0.002 c -0.90889,-1.6158 -1.60991,-3.3177 -2.40039,-4.8008 -1.84585,-3.3053 -4.344869,-4.4759 -7.130849,-4.4707 z"
   id="path1-7"
   style="fill:#f9f9f9;fill-opacity:1;stroke:none;stroke-width:1" />

          <path
   class="fillable"
   d="m -201.76747,1317.3203 c -10.32549,7.2663 -21.21757,14.4258 -32.12305,20.8242 0.59419,0.9078 1.67734,2.0914 2.5625,2.7403 2.19103,-1.189 5.08684,-2.6422 7.14258,-3.6211 h -0.004 c 1.34931,-0.6746 2.65186,-0.7595 3.82422,-0.3907 1.17237,0.3688 2.20955,1.1781 3.08203,2.2559 l 0.0664,0.082 -0.8125,6.6016 c -4.59975,45.4973 -9.59928,91.6921 -14.29883,137.1875 v 0.01 c -0.15125,2.1596 -0.4497,3.6869 -0.4375,5.0859 0.0122,1.4005 0.31928,2.6872 1.40039,4.457 h 0.002 c 1.62368,2.6065 3.37059,3.7437 5.38476,4.0332 2.00806,0.2886 4.31558,-0.2902 6.99219,-1.2304 9.47463,-5.9265 17.5795,-13.9171 24.42187,-22.7969 -0.53525,-0.1792 -1.13359,-0.4651 -1.75195,-0.8809 -0.6416,-0.4314 -1.15602,-0.8734 -1.52148,-1.2461 -1.65708,2.066 -4.29929,5.4828 -7.33594,8.1875 -1.55637,1.3862 -3.20791,2.5774 -4.88281,3.2813 -1.67491,0.7038 -3.38626,0.9179 -5.00782,0.3164 l -0.0449,-0.016 -0.0351,-0.033 c -2.1386,-1.9349 -3.14585,-4.0739 -3.60352,-6.4004 -0.45771,-2.3265 -0.37891,-4.8405 -0.37891,-7.586 v -0.01 -0.01 c 0.80109,-9.4127 2.30178,-18.5155 3.30079,-27.9062 l 1.50195,-10.4063 1.59961,-10.5 1.70117,-10.4004 1.59961,-10.2012 1.69922,-10.4003 c 1.3999,-8.5995 2.9011,-18.0009 4.50195,-26.6055 l 1.19922,-6.293 0.79883,-6.3906 0.79883,-6.6914 0.29882,-6.5781 c 0,-6.4556 -0.4064,-12.1469 -1.64062,-18.4688 z"
   id="path2-0"
   style="fill:#f9f9f9;fill-opacity:1;stroke:none;stroke-width:1" />

          <path
   class="fillable"
   d="m -274.72852,1371.3008 v 0 c -0.38575,0 -0.76235,0.024 -1.13086,0.074 -2.93657,0.399 -5.30002,2.3921 -6.77343,5.3906 -0.33881,1.7607 -0.37641,3.2105 -0.13477,4.3515 0.24338,1.1493 0.75559,1.9905 1.51953,2.584 1.52079,1.1816 4.13508,1.3757 7.67774,0.6446 2.10285,-1.3262 3.38067,-2.5151 4.13476,-3.9395 0.75027,-1.4172 0.99596,-3.1054 1.00196,-5.4414 -1.07393,-1.7426 -2.19637,-2.9577 -4.29883,-3.4356 -0.68631,-0.1525 -1.35318,-0.2282 -1.9961,-0.2304 z m -29.875,6.6992 v 0 c -1.97954,-0.059 -3.73181,1.0868 -5.0957,2.6914 -1.44116,1.6954 -2.41423,3.8884 -2.71484,5.5762 0.44439,2.0682 1.51504,3.5911 3.0039,4.4844 1.50029,0.9002 3.42937,1.172 5.57813,0.6836 h 0.006 0.004 c 2.43047,-0.4375 4.06065,-1.7813 5.10547,-3.543 1.0301,-1.7368 1.46807,-3.8835 1.48047,-5.9219 -0.9217,-1.2532 -1.78619,-2.2418 -2.83594,-2.9023 -1.07083,-0.6738 -2.34018,-1.0352 -4.10546,-1.0352 h -0.0137 -0.0137 v -0.01 c -0.13395,-0.015 -0.26647,-0.023 -0.39844,-0.027 z m 59.6211,18.1758 v 0 c -0.56639,0.03 -1.14786,0.1051 -1.73633,0.2129 -2.35179,0.4309 -4.76372,1.3743 -6.58008,1.9297 -19.3653,6.3885 -37.53666,16.671 -53.51367,29.4512 -8.69003,8.291 -16.87591,16.878 -24.16211,26.3594 h -0.004 c -4.59066,7.1865 -8.67993,14.27 -12.37109,21.9511 h -0.002 c -4.97917,12.5541 -8.72686,30.5612 -1.12696,43.0332 3.19625,3.1857 6.14529,3.7257 9.16602,3.1387 3.01966,-0.5868 6.10406,-2.3421 9.41016,-3.7969 l 7.86718,-5.5761 7.67188,-7.1739 c 0.002,-0.01 0.002,-0.01 0.004,-0.01 11.28709,-12.5862 20.97487,-25.8675 29.46485,-40.75 l 0.83398,-1.461 -0.37304,1.6407 c -3.17505,13.9901 -6.32271,30.3179 -3.54688,44.5722 12.94155,-5.5312 25.09275,-13.3773 35.23438,-23.248 -0.1292,-0.053 -0.23841,-0.072 -0.38672,-0.1485 -0.31479,-0.1639 -0.66502,-0.377 -1.00977,-0.6132 -0.60137,-0.412 -1.09972,-0.869 -1.43554,-1.2969 -1.98444,1.6712 -4.39594,3.4212 -6.23243,5.0644 l -0.0195,0.018 -0.0215,0.016 c -1.64795,0.9488 -3.56042,2.0899 -5.39258,2.4278 -0.91609,0.1689 -1.82214,0.1329 -2.64453,-0.2539 -0.82239,-0.3868 -1.54499,-1.1208 -2.11328,-2.2832 l -0.0156,-0.031 -0.006,-0.037 c -1.21292,-7.3785 1.1014,-15.2019 2.09766,-22.4746 h 0.002 c 0.67222,-4.1294 1.4561,-8.3427 2.40235,-12.3965 -5.27764,2.7998 -9.73053,5.4185 -15.5879,7.0781 l -0.51171,0.1446 0.21484,-0.4864 c 1.50445,-3.4101 3.49813,-7.1029 4.58789,-10.3672 2.19058,-7.7666 2.78279,-14.3804 -0.2832,-22.1132 -2.56807,-3.7983 -3.83988,-4.4232 -7.65235,-6.6797 -0.20439,6.3613 -0.58663,12.7229 -1.17382,19.084 l -0.002,0.012 v 0.01 c -1.0029,6.5188 -2.70652,12.626 -4.20508,18.92 l -0.004,0.018 -0.008,0.018 c -2.60165,6.4041 -5.60206,13.3101 -8.70704,19.4199 h -0.002 c -4.00972,7.6185 -8.9188,14.63 -14.12305,21.4356 l -0.0137,0.019 -0.0156,0.018 c -3.80486,3.5044 -6.63087,5.8255 -11.25,8.3359 l -0.0312,0.016 -0.0332,0.01 c -2.63293,0.5823 -4.72969,0.4868 -6.41406,-0.1269 -1.68437,-0.6137 -2.94432,-1.745 -3.91015,-3.1778 -1.93165,-2.8655 -2.72505,-6.9389 -3.57422,-10.7851 l -0.006,-0.023 v -0.022 c -0.6017,-18.753 5.03395,-30.0359 14.84179,-44.8477 h 0.002 l 5.41211,-7.3164 6.11718,-6.7187 6.61719,-6.0157 7.32227,-5.416 7.7207,-4.5117 8.41992,-4.0098 9.32227,-3.3086 10.31836,-2.705 h 0.008 c 6.04334,-1.189 12.09296,-2.2759 18.24414,-2.8809 0.79669,-3.5953 1.9047,-6.2244 1.26563,-10.0352 -0.77062,-0.6747 -1.69764,-1.0463 -2.72266,-1.1875 v -0.01 c -0.52682,-0.073 -1.07813,-0.089 -1.64453,-0.059 z"
   id="path3-9"
   style="fill:#f9f9f9;fill-opacity:1;stroke:none;stroke-width:1" />

        </g>
  </g>
</svg>
